<?xml version="1.0" encoding="iso-8859-1"?>
<!-- Uploaded to: SVG Repo, www.svgrepo.com, Generator: SVG Repo Mixer Tools -->
<svg height="800px" width="800px" version="1.1" id="Layer_1" xmlns="http://www.w3.org/2000/svg" xmlns:xlink="http://www.w3.org/1999/xlink" 
	 viewBox="0 0 512 512" xml:space="preserve">
<path style="fill:#4D90F4;" d="M386.148,59.766V21.019c0-7.143-5.792-12.935-12.935-12.935h-56.585v273.151l69.52-74.487V87.791"/>
<polygon style="fill:#3C81C6;" points="369.403,8.084 316.628,8.084 316.628,281.236 369.403,224.69 "/>
<path style="fill:#FE9900;" d="M255.999,362.352c-31.6,0-57.31,25.708-57.31,57.307c0,31.601,25.71,57.309,57.31,57.309
	s57.307-25.709,57.307-57.309C313.306,388.06,287.599,362.352,255.999,362.352z"/>
<path style="fill:#EF7A06;" d="M251.819,419.659c0-22.016,12.486-41.16,30.744-50.755c-7.946-4.176-16.981-6.553-26.565-6.553
	c-31.6,0-57.309,25.708-57.309,57.307c0,31.601,25.71,57.309,57.309,57.309c9.584,0,18.617-2.377,26.565-6.553
	C264.305,460.822,251.819,441.676,251.819,419.659z"/>
<path style="fill:#F9AB43;" d="M284.448,410.563c-0.697-2.148-2.556-3.714-4.791-4.04l-12.625-1.833l-5.646-11.441
	c-1-2.026-3.063-3.309-5.323-3.309c-2.261,0-4.324,1.284-5.324,3.309l-5.646,11.441l-12.625,1.833
	c-2.236,0.326-4.095,1.892-4.791,4.04c-0.698,2.149-0.115,4.51,1.502,6.086l9.135,8.906l-2.156,12.575
	c-0.383,2.227,0.535,4.478,2.362,5.807c1.827,1.328,4.25,1.505,6.253,0.452l11.293-5.937l11.291,5.937
	c0.87,0.457,1.819,0.682,2.763,0.682c1.232,0,2.457-0.383,3.49-1.134c1.829-1.329,2.745-3.579,2.362-5.807l-2.156-12.575
	l9.135-8.906C284.565,415.071,285.146,412.712,284.448,410.563z"/>
<path style="fill:#F44321;" d="M195.37,8.084v271.957c0,7.143,5.792,12.935,12.935,12.935h95.389
	c7.143,0,12.935-5.792,12.935-12.935V8.084H195.37z M256.063,274.783c-8.733,0-15.811-7.077-15.811-15.809
	s7.077-15.809,15.811-15.809c8.731,0,15.808,7.077,15.808,15.809C271.871,267.705,264.792,274.783,256.063,274.783z"/>
<path style="fill:#E8331A;" d="M256.763,280.041v-5.294c-0.235,0.011-0.465,0.036-0.701,0.036c-8.733,0-15.811-7.077-15.811-15.809
	s7.077-15.809,15.811-15.809c0.237,0,0.467,0.025,0.701,0.036V8.084H195.37v271.957c0,7.143,5.792,12.935,12.935,12.935h61.394
	C262.555,292.976,256.763,287.185,256.763,280.041z"/>
<path style="fill:#F9AB43;" d="M255.999,503.916c-46.459,0-84.257-37.797-84.257-84.257c0-46.458,37.797-84.255,84.257-84.255
	s84.255,37.796,84.255,84.255C340.254,466.118,302.458,503.916,255.999,503.916z M255.999,362.352
	c-31.6,0-57.31,25.708-57.31,57.307c0,31.601,25.71,57.309,57.31,57.309s57.307-25.709,57.307-57.309
	C313.306,388.06,287.599,362.352,255.999,362.352z"/>
<path style="fill:#4D90F4;" d="M138.784,8.084h56.585v273.151l-69.52-74.487V21.019C125.85,13.876,131.641,8.084,138.784,8.084z"/>
<path style="fill:#3C81C6;" d="M176.964,254.736V8.084h-38.18c-7.143,0-12.935,5.792-12.935,12.935V206.75l69.52,74.487v-6.78
	L176.964,254.736z"/>
<g>
	<path style="fill:#231F20;" d="M386.148,67.85c4.465,0,8.084-3.618,8.084-8.084V21.019C394.232,9.429,384.804,0,373.214,0h-56.585
		H195.37h-56.585c-11.591,0-21.019,9.429-21.019,21.019V206.75c0,2.047,0.777,4.019,2.174,5.516l67.991,72.848
		c2.279,9.143,10.535,15.946,20.374,15.946h39.674v4.094c-9.208,3.321-15.811,12.145-15.811,22.483v2.818
		c-39.401,10.536-68.51,46.528-68.51,89.204C163.659,470.575,205.083,512,256,512c50.915,0,92.339-41.425,92.339-92.341
		c0-42.631-29.047-78.589-68.383-89.169v-2.853c0-10.338-6.601-19.162-15.808-22.483v-4.094h39.547
		c9.839,0,18.096-6.804,20.374-15.946l67.991-72.848c1.397-1.497,2.174-3.469,2.174-5.516V87.791c0-4.466-3.62-8.084-8.084-8.084
		c-4.465,0-8.084,3.618-8.084,8.084v115.771l-53.351,57.163V16.168h48.501c2.674,0,4.851,2.176,4.851,4.851v38.747
		C378.064,64.232,381.685,67.85,386.148,67.85z M332.169,419.659c0,42.002-34.169,76.173-76.17,76.173s-76.173-34.17-76.173-76.173
		c0-37.125,26.704-68.112,61.908-74.811c0.009-0.002,0.017-0.002,0.026-0.003c2.367-0.449,4.737-0.786,7.11-1.011
		c0.101-0.01,0.203-0.014,0.303-0.023c1.094-0.099,2.189-0.18,3.284-0.232c0.176-0.009,0.354-0.007,0.528-0.013
		c5.796-0.232,11.595,0.195,17.366,1.299c0.006,0.001,0.013,0.001,0.02,0.003C305.522,351.609,332.169,382.572,332.169,419.659z
		 M260.256,327.428c-1.422-0.067-2.842-0.108-4.257-0.108c-1.404,0-2.815,0.041-4.229,0.108c-0.686,0.031-1.366,0.084-2.047,0.129
		c-0.462,0.032-0.925,0.049-1.387,0.088v-0.009c0-4.26,3.467-7.725,7.726-7.725c4.259,0,7.724,3.465,7.724,7.725v0.019
		c-0.475-0.041-0.949-0.058-1.424-0.092C261.661,327.516,260.962,327.46,260.256,327.428z M133.934,21.019
		c0-2.674,2.176-4.851,4.851-4.851h48.501v244.558l-53.351-57.163V21.019z M303.694,284.892h-39.547v-3.435
		c9.207-3.321,15.808-12.145,15.808-22.483c0-13.175-10.719-23.894-23.893-23.894c-13.176,0-23.895,10.719-23.895,23.894
		c0,10.338,6.602,19.162,15.811,22.483v3.434h-39.674c-2.674,0-4.851-2.175-4.851-4.851V16.168h105.09v263.873
		C308.544,282.716,306.368,284.892,303.694,284.892z M256.063,266.699c-4.26,0-7.726-3.465-7.726-7.725
		c0-4.26,3.467-7.725,7.726-7.725c4.259,0,7.724,3.465,7.724,7.725C263.787,263.234,260.321,266.699,256.063,266.699z"/>
	<path style="fill:#231F20;" d="M280.817,398.522l-8.419-1.223l-3.765-7.629c-2.379-4.821-7.196-7.816-12.572-7.816
		c-5.375,0-10.195,2.994-12.574,7.816l-3.765,7.629l-8.421,1.223c-5.323,0.775-9.659,4.431-11.316,9.54
		c-1.663,5.112-0.305,10.619,3.545,14.375l6.092,5.939l-1.438,8.382c-0.912,5.298,1.226,10.554,5.576,13.716
		c2.411,1.754,5.262,2.68,8.243,2.68c2.266,0,4.522-0.558,6.526-1.611l7.529-3.959l7.531,3.96c2.004,1.053,4.26,1.609,6.522,1.609
		c2.984,0,5.834-0.926,8.242-2.676c4.353-3.16,6.49-8.417,5.579-13.714l-1.438-8.386l6.09-5.936
		c3.852-3.752,5.212-9.262,3.549-14.372C290.478,402.954,286.142,399.296,280.817,398.522z M268.168,419.766
		c-1.906,1.857-2.775,4.533-2.324,7.155l1.42,8.287l-7.439-3.913c-2.356-1.237-5.169-1.237-7.525,0l-7.442,3.913l1.42-8.287
		c0.451-2.623-0.419-5.298-2.324-7.155l-6.019-5.868l8.319-1.208c2.632-0.382,4.91-2.036,6.087-4.423l3.72-7.538l3.72,7.538
		c1.178,2.386,3.455,4.04,6.087,4.423l8.319,1.208L268.168,419.766z"/>
	<path style="fill:#231F20;" d="M255.999,354.267c-36.058,0-65.394,29.335-65.394,65.392c0,36.058,29.336,65.394,65.394,65.394
		c36.057,0,65.392-29.336,65.392-65.394C321.39,383.602,292.056,354.267,255.999,354.267z M255.999,468.884
		c-27.144,0-49.225-22.082-49.225-49.225c0-27.142,22.082-49.223,49.225-49.223c27.142,0,49.223,22.081,49.223,49.223
		C305.222,446.802,283.141,468.884,255.999,468.884z"/>
</g>
</svg>