<svg xmlns="http://www.w3.org/2000/svg"  viewBox="0 0 64 64" width="128px" height="128px"><linearGradient id="fSrUaOSf_bgqAkcHproEsa" x1="16" x2="16" y1="42.936" y2="52.006" gradientUnits="userSpaceOnUse"><stop offset="0" stop-color="#6dc7ff"/><stop offset="1" stop-color="#e6abff"/></linearGradient><path fill="url(#fSrUaOSf_bgqAkcHproEsa)" d="M19,52h-6c-0.552,0-1-0.448-1-1v-6c0-0.552,0.448-1,1-1h6c0.552,0,1,0.448,1,1v6 C20,51.552,19.552,52,19,52z"/><linearGradient id="fSrUaOSf_bgqAkcHproEsb" x1="16" x2="16" y1="10.936" y2="20.006" gradientUnits="userSpaceOnUse"><stop offset="0" stop-color="#6dc7ff"/><stop offset="1" stop-color="#e6abff"/></linearGradient><path fill="url(#fSrUaOSf_bgqAkcHproEsb)" d="M19,20h-6c-0.552,0-1-0.448-1-1v-6c0-0.552,0.448-1,1-1h6c0.552,0,1,0.448,1,1v6 C20,19.552,19.552,20,19,20z"/><g><linearGradient id="fSrUaOSf_bgqAkcHproEsc" x1="32" x2="32" y1="6.319" y2="54.319" gradientUnits="userSpaceOnUse"><stop offset="0" stop-color="#1a6dff"/><stop offset="1" stop-color="#c822ff"/></linearGradient><path fill="url(#fSrUaOSf_bgqAkcHproEsc)" d="M52.862,24H50v-2c0-1.103-0.897-2-2-2v-2c0-1.654-1.346-3-3-3H28c0-1.103-0.897-2-2-2h-2v-2 c0-1.654-1.346-3-3-3H11c-1.654,0-3,1.346-3,3v10c0,1.654,1.346,3,3,3h10c1.654,0,3-1.346,3-3v-2h2c1.103,0,2-0.897,2-2h17 c0.551,0,1,0.448,1,1v2c-1.103,0-2,0.897-2,2v2h-2.862C39.408,24,38,25.407,38,27.138v9.725C38,38.593,39.408,40,41.138,40H44v2 c0,1.103,0.897,2,2,2v2c0,0.552-0.449,1-1,1H28c0-1.103-0.897-2-2-2h-2v-2c0-1.654-1.346-3-3-3H11c-1.654,0-3,1.346-3,3v10 c0,1.654,1.346,3,3,3h10c1.654,0,3-1.346,3-3v-2h2c1.103,0,2-0.897,2-2h17c1.654,0,3-1.346,3-3v-2c1.103,0,2-0.897,2-2v-2h2.862 C54.592,40,56,38.593,56,36.862v-9.725C56,25.407,54.592,24,52.862,24z M22,21c0,0.552-0.449,1-1,1H11c-0.551,0-1-0.448-1-1V11 c0-0.552,0.449-1,1-1h10c0.551,0,1,0.448,1,1V21z M24,17v-2h2v2H24z M22,53c0,0.552-0.449,1-1,1H11c-0.551,0-1-0.448-1-1V43 c0-0.552,0.449-1,1-1h10c0.551,0,1,0.448,1,1V53z M24,49v-2h2v2H24z M46,22l2-0.001V24h-2V22z M48,42h-2v-2h2V42z M54,36.862 C54,37.489,53.489,38,52.862,38H41.138C40.511,38,40,37.489,40,36.862v-9.725C40,26.511,40.511,26,41.138,26h11.724 C53.489,26,54,26.511,54,27.138V36.862z"/><linearGradient id="fSrUaOSf_bgqAkcHproEsd" x1="47" x2="47" y1="6.319" y2="54.321" gradientUnits="userSpaceOnUse"><stop offset="0" stop-color="#1a6dff"/><stop offset="1" stop-color="#c822ff"/></linearGradient><rect width="10" height="2" x="42" y="29" fill="url(#fSrUaOSf_bgqAkcHproEsd)"/><linearGradient id="fSrUaOSf_bgqAkcHproEse" x1="47" x2="47" y1="6.319" y2="54.321" gradientUnits="userSpaceOnUse"><stop offset="0" stop-color="#1a6dff"/><stop offset="1" stop-color="#c822ff"/></linearGradient><rect width="6" height="2" x="44" y="33" fill="url(#fSrUaOSf_bgqAkcHproEse)"/></g></svg>